<svg xmlns="http://www.w3.org/2000/svg" width="1400" height="840" viewBox="0 0 1400 840">
  <defs>
    <marker id="arrow" markerWidth="10" markerHeight="7" refX="9" refY="3.5" orient="auto" markerUnits="strokeWidth">
      <polygon points="0 0, 10 3.5, 0 7" fill="#1f2937" />
    </marker>
    <style>
      .title { font: 700 28px 'Helvetica Neue', Arial, sans-serif; fill: #0f172a; }
      .group { font: 700 18px 'Helvetica Neue', Arial, sans-serif; fill: #1f2937; }
      .label { font: 600 15px 'Helvetica Neue', Arial, sans-serif; fill: #0f172a; }
      .sub { font: 500 13px 'Helvetica Neue', Arial, sans-serif; fill: #334155; }
      .edge { stroke: #1f2937; stroke-width: 2.5; fill: none; marker-end: url(#arrow); }
      .edgeLabel { font: 600 13px 'Helvetica Neue', Arial, sans-serif; fill: #1f2937; }
      .legend { font: 600 13px 'Helvetica Neue', Arial, sans-serif; fill: #0f172a; }
    </style>
  </defs>

  <text x="40" y="46" class="title">hud-bm9i Rust Publish-Load Harness: Component + Workflow View</text>

  <rect x="32" y="70" width="1336" height="730" rx="16" fill="#f8fafc" stroke="#cbd5e1" />

  <rect x="70" y="120" width="260" height="140" rx="12" fill="#fef3c7" stroke="#92400e" stroke-width="2" />
  <text x="92" y="155" class="label">/user-test-performance</text>
  <text x="92" y="180" class="sub">grpc_widget_publish_perf.py</text>
  <text x="92" y="202" class="sub">invokes Rust harness binary</text>

  <rect x="410" y="110" width="330" height="170" rx="12" fill="#a7f3d0" stroke="#065f46" stroke-width="2" />
  <text x="432" y="145" class="label">widget_publish_load_harness</text>
  <text x="432" y="170" class="sub">single stream, burst/paced modes</text>
  <text x="432" y="192" class="sub">target_id registry + env PSK</text>
  <text x="432" y="214" class="sub">request_sequence RTT correlation</text>

  <rect x="830" y="120" width="470" height="140" rx="12" fill="#e2e8f0" stroke="#334155" stroke-width="2" />
  <text x="852" y="155" class="label">Runtime Target (Resident gRPC session)</text>
  <text x="852" y="180" class="sub">SessionInit + WidgetPublish requests</text>
  <text x="852" y="202" class="sub">WidgetPublishResult acknowledgements</text>

  <rect x="410" y="330" width="330" height="170" rx="12" fill="#fef3c7" stroke="#92400e" stroke-width="2" />
  <text x="432" y="365" class="label">Protocol Surfaces (modified)</text>
  <text x="432" y="390" class="sub">session.proto field 47</text>
  <text x="432" y="412" class="sub">WidgetPublishResult.request_sequence</text>
  <text x="432" y="434" class="sub">session_server durable/ephemeral ack rules</text>

  <rect x="830" y="330" width="470" height="170" rx="12" fill="#a7f3d0" stroke="#065f46" stroke-width="2" />
  <text x="852" y="365" class="label">tze_hud_telemetry::publish_load</text>
  <text x="852" y="390" class="sub">canonical artifact schema + validation</text>
  <text x="852" y="412" class="sub">byte_accounting_mode + calibration semantics</text>
  <text x="852" y="434" class="sub">uncalibrated verdict guardrails</text>

  <rect x="410" y="580" width="330" height="150" rx="12" fill="#a7f3d0" stroke="#065f46" stroke-width="2" />
  <text x="432" y="615" class="label">Publish-load JSON artifact</text>
  <text x="432" y="640" class="sub">identity + metrics + thresholds</text>
  <text x="432" y="662" class="sub">traceability + verdict + warnings</text>

  <rect x="830" y="580" width="470" height="150" rx="12" fill="#fef3c7" stroke="#92400e" stroke-width="2" />
  <text x="852" y="615" class="label">benchmark_history/results.csv</text>
  <text x="852" y="640" class="sub">perf_common schema migration + append</text>
  <text x="852" y="662" class="sub">historical comparison continuity</text>

  <path class="edge" d="M330 190 L410 190" />
  <text x="342" y="176" class="edgeLabel">cargo run -p harness</text>

  <path class="edge" d="M740 190 L830 190" />
  <text x="748" y="176" class="edgeLabel">one gRPC stream</text>

  <path class="edge" d="M835 230 C760 280, 720 300, 650 330" />
  <text x="700" y="275" class="edgeLabel">request_sequence echoed</text>

  <path class="edge" d="M575 280 L575 330" />
  <text x="585" y="310" class="edgeLabel">contract + runtime</text>

  <path class="edge" d="M740 415 L830 415" />
  <text x="748" y="401" class="edgeLabel">artifact fields + semantics</text>

  <path class="edge" d="M575 500 L575 580" />
  <text x="585" y="545" class="edgeLabel">emit JSON</text>

  <path class="edge" d="M740 655 L830 655" />
  <text x="748" y="641" class="edgeLabel">append summary row</text>

  <rect x="60" y="748" width="1240" height="40" rx="8" fill="#ffffff" stroke="#cbd5e1" />
  <rect x="80" y="760" width="18" height="18" fill="#a7f3d0" stroke="#065f46" /><text x="106" y="774" class="legend">New in epic</text>
  <rect x="250" y="760" width="18" height="18" fill="#fef3c7" stroke="#92400e" /><text x="276" y="774" class="legend">Modified existing surface</text>
  <rect x="500" y="760" width="18" height="18" fill="#e2e8f0" stroke="#334155" /><text x="526" y="774" class="legend">Existing runtime surface</text>
</svg>
